<?xml version="1.0" encoding="utf-8"?>
<svg xmlns="http://www.w3.org/2000/svg" viewBox="0 0 500 500">
  <defs>
    <linearGradient gradientUnits="userSpaceOnUse" x1="253.216" y1="20.66" x2="253.216" y2="495.952" id="gradient-0">
      <stop offset="0" style="stop-color: rgb(18.824% 47.451% 65.098%)"/>
      <stop offset="1" style="stop-color: rgb(0% 29.203% 45.479%)"/>
    </linearGradient>
  </defs>
  <path d="M 447.681 20.665 C 447.24 20.748 446.807 20.861 446.396 20.986 L 407.506 20.986 C 404.73 20.986 402.045 22.235 400.111 24.217 L 255.487 171.663 L 268.015 187.803 L 306.914 148.441 L 313.981 215.877 L 302.738 232.656 L 314.31 247.823 C 314.824 248.505 315.431 249.063 315.914 249.754 L 438.363 65.519 L 438.363 292.336 C 432.212 295.929 428.078 302.455 428.078 310.086 C 428.078 317.706 432.212 324.241 438.363 327.835 L 438.363 340.742 C 438.363 350.416 444.637 359.534 454.439 362.353 C 464.107 365.14 470.906 374.784 468.901 386.235 C 467.491 394.216 460.497 401.279 452.505 402.694 C 439.011 405.079 428.078 395.167 428.078 382.373 C 428.129 378.645 426.185 375.176 422.976 373.297 C 419.767 371.438 415.818 371.438 412.608 373.297 C 409.399 375.197 407.465 378.666 407.506 382.373 C 407.506 407.506 430.525 427.505 456.044 423.035 C 472.922 419.998 486.139 406.731 489.143 389.787 C 492.804 368.888 480.194 348.589 459.901 342.683 C 459.49 342.569 458.934 341.722 458.934 340.752 L 458.934 327.846 C 465.085 324.252 469.219 317.726 469.219 310.096 C 469.219 302.476 465.085 295.939 458.934 292.347 L 458.934 31.962 C 458.975 31.476 458.975 30.826 458.934 30.34 C 458.851 29.896 458.749 29.473 458.615 29.05 C 458.162 27.242 457.278 25.581 456.044 24.207 C 455.766 23.846 455.437 23.515 455.077 23.247 C 454.306 22.587 453.441 22.039 452.505 21.636 C 452.186 21.512 451.898 21.388 451.538 21.305 C 450.304 20.842 448.998 20.624 447.681 20.665 M 411.682 41.636 L 429.363 41.636 L 394.331 94.554 L 391.43 61.967 L 411.682 41.636 Z M 372.474 81.647 L 375.046 113.274 L 339.046 115.525 L 372.474 81.647 Z M 367.969 134.244 L 331.651 188.773 L 326.189 137.146 L 367.969 134.244 Z M 78.371 165.54 C 61.38 165.54 47.515 179.46 47.515 196.517 L 47.515 320.422 C 47.515 337.479 61.38 351.397 78.371 351.397 L 109.228 351.397 L 109.228 372.048 L 78.371 372.048 C 44.336 372.048 16.658 399.834 16.658 434.001 C 16.658 468.166 44.336 495.952 78.371 495.952 L 304.651 495.952 C 338.686 495.952 366.364 468.166 366.364 434.001 C 366.364 399.834 338.686 372.048 304.651 372.048 L 273.795 372.048 L 273.795 351.397 L 284.081 351.397 C 301.072 351.397 314.937 337.479 314.937 320.422 L 314.937 279.119 C 314.834 270.002 311.78 261.174 306.256 253.957 L 247.115 177.477 C 241.2 169.981 232.211 165.582 222.686 165.54 L 78.371 165.54 Z M 184.445 186.192 L 222.686 186.192 C 225.865 186.192 228.796 187.565 230.73 190.063 L 290.179 266.863 C 292.915 270.374 294.294 274.639 294.366 279.119 L 209.511 279.119 L 184.445 186.192 Z M 129.798 351.397 L 253.224 351.397 L 253.224 372.048 L 129.798 372.048 L 129.798 351.397 Z M 78.371 413.35 C 94.211 413.35 104.105 430.551 96.186 444.325 C 92.514 450.706 85.725 454.651 78.371 454.651 C 62.531 454.651 52.636 437.439 60.556 423.675 C 64.229 417.284 71.017 413.35 78.371 413.35 M 140.084 413.35 C 155.923 413.35 165.818 430.551 157.898 444.325 C 154.227 450.706 147.438 454.651 140.084 454.651 C 124.244 454.651 114.35 437.439 122.27 423.675 C 125.941 417.284 132.73 413.35 140.084 413.35 M 242.939 413.35 C 258.778 413.35 268.673 430.551 260.753 444.325 C 257.082 450.706 250.293 454.651 242.939 454.651 C 227.099 454.651 217.205 437.439 225.124 423.675 C 228.796 417.284 235.585 413.35 242.939 413.35 M 304.651 413.35 C 320.491 413.35 330.386 430.551 322.466 444.325 C 318.794 450.706 312.006 454.651 304.651 454.651 C 288.812 454.651 278.918 437.439 286.838 423.675 C 290.509 417.284 297.298 413.35 304.651 413.35" style="fill: url(&quot;#gradient-0&quot;);"/>
</svg>